Coordinates
version=1
nRows=17
nColumns=36
inDegrees=yes

Units are S.I. units (second, meters, Newtons, ...)
If the header above contains a line with 'inDegrees', this indicates whether rotational values are in degrees (yes) or radians (no).

endheader
time	pelvis_tilt	pelvis_list	pelvis_rotation	pelvis_tx	pelvis_ty	pelvis_tz	hip_flexion_r	hip_adduction_r	hip_rotation_r	knee_angle_r	knee_angle_r_beta	ankle_angle_r	subtalar_angle_r	mtp_angle_r	hip_flexion_l	hip_adduction_l	hip_rotation_l	knee_angle_l	knee_angle_l_beta	ankle_angle_l	subtalar_angle_l	mtp_angle_l	lumbar_extension	lumbar_bending	lumbar_rotation	arm_flex_r	arm_add_r	arm_rot_r	elbow_flex_r	pro_sup_r	arm_flex_l	arm_add_l	arm_rot_l	elbow_flex_l	pro_sup_l
     14.88333330	      6.34639880	      1.07961161	    169.39782711	      0.49202579	      0.92607704	      0.78738095	     33.03092370	     -2.06480344	      1.20131040	     68.88533356	      1.20227588	     -1.17245105	    -18.83563254	     -7.49999987	     20.71786199	     -1.82571379	     -2.24487548	     22.23629405	      0.38809654	     -2.12405812	    -11.41113600	     -7.49999987	     -8.12721202	     -0.22521313	      0.84193547	     12.40574508	    -11.15115674	     -1.90898705	     33.58476043	     84.67545316	     14.21594945	     -8.20207486	     -4.46348521	     16.77853949	     85.37309255
     14.90000000	      6.60658697	      0.56555574	    169.30429632	      0.49160413	      0.92844114	      0.78679386	     33.69822618	     -2.17792710	      0.44649078	     64.33134741	      1.12279382	     -3.06284078	    -17.08992636	     -7.49999987	     19.46283091	     -1.15846928	     -2.14521068	     21.56523198	      0.37638430	     -1.48262611	    -11.31303718	     -7.49999987	     -7.26983011	     -0.77993303	      0.27585632	     10.56282572	    -10.41731050	     -2.25848028	     32.77685202	     84.44505947	     14.42493892	     -9.28054384	     -4.29014906	     17.62913542	     85.23547971
     14.91666670	      6.69127475	      0.16133843	    169.24477015	      0.49166179	      0.93134248	      0.78664628	     34.12850895	     -2.21694248	     -0.35114622	     59.48675935	      1.03823981	     -4.49164058	    -15.17322044	     -7.49999987	     18.02981170	     -0.61418652	     -2.25312315	     20.81778132	      0.36333883	     -0.77078250	    -10.93595378	     -7.49999987	     -6.66478767	     -1.21214955	     -0.40986657	      9.36737324	     -9.26321328	     -4.50049717	     30.61256612	     84.96386619	     14.26599288	    -10.49232914	     -3.06282734	     18.73541095	     86.23091341
     14.93333330	      6.85060788	     -0.27790153	    169.21721684	      0.49207459	      0.93436719	      0.78717498	     34.44017609	     -2.43881945	     -1.26660226	     54.53305640	      0.95178139	     -5.42249014	    -13.76409655	     -7.49999987	     16.81111626	     -0.07629846	     -2.71948092	     20.08085692	      0.35047707	     -0.00508343	    -10.52290078	     -7.49999987	     -6.07357513	     -1.70319259	     -0.82326900	      7.81185219	     -8.58904877	     -5.70717146	     29.08420454	     85.12501570	     14.40303327	    -11.25248489	     -2.78353851	     19.14022542	     86.53646302
     14.95000000	      6.98359183	     -0.70352730	    169.24304843	      0.49262079	      0.93680701	      0.78784208	     34.46117951	     -2.83255018	     -2.24705531	     49.79176124	      0.86903017	     -5.69922782	    -13.04475915	     -7.49999987	     15.63364536	      0.43263891	     -3.50799484	     19.30392691	      0.33691708	      0.92956839	     -9.94464708	     -7.49999987	     -5.54775385	     -2.17385505	     -1.39121731	      6.49595577	     -8.00910114	     -6.60936036	     27.27574516	     85.07409910	     14.39520167	    -11.91461056	     -2.60306580	     19.51637931	     86.87904707
     14.96666670	      7.29544653	     -1.20294082	    169.32466225	      0.49295859	      0.93716051	      0.78809305	     34.58873275	     -3.37573478	     -3.09132194	     45.54880055	      0.79497654	     -5.60874976	    -12.79858429	     -7.49999987	     14.63716715	      1.10533198	     -3.91656288	     18.32753892	      0.31987590	      1.58824580	    -10.03423594	     -7.49999987	     -4.80251475	     -2.69501087	     -1.79312161	      4.71759286	     -7.65188859	     -6.78073501	     26.36238408	     85.01351337	     14.41822968	    -12.38573731	     -2.54785069	     19.88571009	     86.94337447
     14.98333330	      7.09755190	     -1.48063620	    169.38605192	      0.49298315	      0.93654631	      0.78744200	     33.81084618	     -3.77452810	     -3.76773521	     41.25584544	      0.72005034	     -5.77903679	    -12.56580076	     -7.49999987	     13.00717226	      1.67337075	     -4.29808710	     17.23748225	      0.30085082	      2.31731178	     -9.78777160	     -7.49999987	     -4.73223974	     -3.07828238	     -2.32303854	      3.62608338	     -7.01647884	     -7.84285949	     24.29184672	     84.85136863	     14.41721439	    -12.99393607	     -1.70146489	     20.59936175	     87.72345199
     15.00000000	      7.05669817	     -1.90126754	    169.47757324	      0.49252950	      0.93468492	      0.78604823	     32.94731714	     -4.26809740	     -4.33367804	     36.92366878	      0.64443959	     -6.12423147	    -11.61435056	     -7.49999987	     11.61136407	      2.40282713	     -4.42387064	     16.36361195	      0.28559891	      3.15277862	     -9.63779233	     -7.49999987	     -4.41869896	     -3.55202913	     -2.75939656	      2.14003903	     -6.44758152	     -8.96259582	     22.85541710	     85.34182802	     14.46786290	    -13.60965342	     -0.53164801	     21.18017911	     89.35146307
     15.01666670	      6.89504301	     -2.29772118	    169.66996348	      0.49200241	      0.93299932	      0.78456838	     31.74441923	     -4.71724332	     -4.88710480	     32.62066996	      0.56933810	     -7.07698596	    -10.60263860	     -7.49999987	     10.20904271	      3.14345579	     -4.06593368	     15.91392102	      0.27775032	      3.85103199	    -10.05678349	     -7.49999987	     -4.31643130	     -4.01676638	     -3.07794732	      0.53235597	     -5.91663878	     -9.75775420	     21.74965712	     85.13564123	     14.65198355	    -14.10828976	      0.41129203	     22.02317075	     89.97347526
     15.03333330	      7.06269459	     -2.88412714	    169.87157134	      0.49169356	      0.93103215	      0.78326834	     31.16128755	     -5.24862517	     -5.47827194	     29.08585024	      0.50764385	     -8.51490015	     -9.56643284	     -7.49999987	      9.24091310	      3.94493655	     -3.79480691	     15.57690104	      0.27186821	      4.59669496	    -10.10883277	     -7.49999987	     -3.70559089	     -4.59785187	     -3.36213681	     -1.18211416	     -5.46644806	    -10.03850524	     20.89409557	     85.04674634	     14.78776075	    -14.49309056	      0.79396542	     22.60948052	     90.18285807
     15.05000000	      6.71200425	     -3.00032210	    170.18203695	      0.49219145	      0.93043800	      0.78208328	     30.15103256	     -5.37008558	     -6.28190382	     26.29614825	      0.45895437	    -10.85134720	     -9.64018493	     -7.49999987	      7.73688872	      4.25750315	     -3.53212608	     15.27628622	      0.26662149	      5.61758229	     -9.59571629	     -7.49999987	     -4.19690358	     -4.79318146	     -3.23172792	     -2.57170324	     -4.71500392	    -13.14502100	     20.02171878	     84.51052299	     15.40582250	    -15.24092646	      4.93555377	     23.66133851	     92.61537163
     15.06666670	      6.74702296	     -3.14486595	    170.49219084	      0.49320130	      0.92912129	      0.78067515	     29.99869812	     -5.41564565	     -6.99843132	     24.65954229	      0.43039020	    -14.04177145	    -10.74476593	     -7.49999987	      6.72786892	      4.48735742	     -3.26903052	     14.91045594	      0.26023655	      6.47691501	     -8.95224738	     -7.49999987	     -4.30842880	     -4.94326263	     -3.36953838	     -3.60609406	     -4.39627646	    -13.65620769	     19.24461953	     84.47329587	     15.60562116	    -15.49845718	      5.72812082	     24.54462511	     92.97490348
     15.08333330	      7.04291868	     -3.42069772	    170.81985262	      0.49389334	      0.92623915	      0.77949057	     30.41164951	     -5.66406673	     -7.95405161	     23.99114725	      0.41872451	    -16.22869730	    -10.58089412	     -7.49999987	      6.06148430	      4.81629635	     -2.87964212	     14.55906373	      0.25410360	      7.05845994	     -8.67197811	     -7.49999987	     -4.14859593	     -5.20133167	     -3.47426585	     -4.59140410	     -4.16898157	    -13.74833971	     18.82813348	     84.42922037	     15.73754504	    -15.54287957	      5.93678785	     25.01397634	     93.00060174
     15.10000000	      7.34113205	     -3.43956124	    171.28604221	      0.49428146	      0.92226764	      0.77847576	     30.66226062	     -5.48100841	     -8.16337176	     23.31808710	      0.40697740	    -20.98766071	    -14.48683881	     -7.49999987	      5.56865273	      4.75145857	     -2.80073611	     14.76922547	      0.25777161	      7.97042403	     -7.83338375	     -7.49999987	     -4.17858016	     -5.09937960	     -3.83307523	     -5.08837978	     -4.02241955	    -14.42057326	     18.07874574	     84.36564099	     15.69160933	    -15.91363455	      7.58616429	     26.06109585	     93.67397783
     15.11666670	      7.73068589	     -3.74389540	    171.77836853	      0.49477248	      0.91828440	      0.77687077	     31.14397607	     -5.65679953	     -8.31512800	     23.12537896	      0.40361400	    -24.38339748	    -16.70300899	     -7.49999987	      5.25496968	      4.95414183	     -2.58905058	     15.24086260	      0.26600323	      8.60594827	     -7.56400505	     -7.49999987	     -3.91335838	     -5.38714504	     -4.04003573	     -5.71302678	     -3.80475885	    -15.09923142	     17.67162389	     84.40285718	     15.78187942	    -16.20985825	      9.11583349	     26.59453685	     94.26569518
     15.13333330	      8.22739432	     -3.94803287	    172.43349583	      0.49616899	      0.91630391	      0.77353708	     31.61404033	     -5.74509180	     -8.35131962	     22.97541259	      0.40099660	    -27.37235622	    -18.45655462	     -7.49999987	      5.34073672	      4.95644218	     -2.25559452	     16.46282563	      0.28733051	      9.33941330	     -7.55032965	     -7.49999987	     -3.53244732	     -5.56595751	     -4.48178450	     -6.25418371	     -3.59816376	    -15.59806727	     17.45393425	     84.46157694	     15.85012442	    -16.36826788	     10.00456558	     26.95998587	     94.57914761
     15.15000000	      8.69695134	     -4.04845896	    173.18935865	      0.49860656	      0.91697500	      0.76810612	     31.95987313	     -5.72619970	     -8.26479704	     22.88733002	      0.39945927	    -29.79853234	    -19.32708758	     -7.49999987	      5.73438154	      4.77095533	     -1.72664018	     18.43752670	      0.32179555	      9.96438367	     -7.53496062	     -7.49999987	     -3.26374829	     -5.68324863	     -4.83228393	     -6.72565291	     -3.30819847	    -15.91825987	     17.32524507	     84.49545999	     15.94243862	    -16.46352154	     10.43968139	     27.47457251	     94.72364189
